<?xml version="1.0" encoding="UTF-8"?>
<svg version="1.1" xmlns="http://www.w3.org/2000/svg" width="1080" height="1080">
<path d="M0 0 C356.4 0 712.8 0 1080 0 C1080 356.4 1080 712.8 1080 1080 C723.6 1080 367.2 1080 0 1080 C0 723.6 0 367.2 0 0 Z " fill="#FEFEFE" transform="translate(0,0)"/>
<path d="M0 0 C2.62348439 0.01556271 5.22971063 -0.02188013 7.85107422 -0.10546875 C42.02961287 -0.10546875 78.0340074 22.39742314 101.8125 45.49609375 C113.6583778 57.40966228 122.46575169 71.23464501 130.29248047 86.01953125 C130.6226416 86.60919678 130.95280273 87.1988623 131.29296875 87.80639648 C134.62538392 93.99993508 136.46866965 100.60011251 138.41748047 107.33203125 C138.76423828 108.49154297 139.11099609 109.65105469 139.46826172 110.84570312 C143.5191809 124.65142195 144.76755133 137.32420037 144.79248047 151.64453125 C144.7951593 152.55315918 144.79783813 153.46178711 144.80059814 154.39794922 C144.79080605 169.74385578 143.122167 183.37202853 138.29248047 198.01953125 C137.81799335 199.59319912 137.34525061 201.16739434 136.87451172 202.7421875 C132.11964908 217.95103914 123.67583403 231.25952786 114.29248047 244.01953125 C113.39335938 245.25703125 113.39335938 245.25703125 112.47607422 246.51953125 C102.38316159 259.77329124 90.08841063 270.78295067 76.29248047 280.01953125 C74.69146484 281.11201172 74.69146484 281.11201172 73.05810547 282.2265625 C64.61074666 287.72154839 55.67288505 291.46168103 46.29248047 295.01953125 C45.60186523 295.28169434 44.91125 295.54385742 44.19970703 295.81396484 C42.23302337 296.55576782 40.26351917 297.28939087 38.29248047 298.01953125 C37.35146484 298.37015625 36.41044922 298.72078125 35.44091797 299.08203125 C-0.20788306 311.13233019 -41.81012664 306.28571044 -75.23217773 289.9765625 C-87.50030289 283.74689963 -98.26648358 275.95664315 -108.70751953 267.01953125 C-109.36236328 266.48714844 -110.01720703 265.95476562 -110.69189453 265.40625 C-115.22252541 261.68752421 -118.98865726 257.54149413 -122.70751953 253.01953125 C-123.11518555 252.52952637 -123.52285156 252.03952148 -123.94287109 251.53466797 C-147.60860568 222.94362139 -160.30854174 189.61661827 -160.27001953 152.39453125 C-160.27255737 151.60509125 -160.27509521 150.81565125 -160.27770996 150.00228882 C-160.27359933 138.7199418 -158.98569064 128.06001267 -156.70751953 117.01953125 C-156.49538818 115.94977051 -156.28325684 114.88000977 -156.06469727 113.77783203 C-151.99098598 94.08305394 -141.01657057 74.70287813 -128.70751953 59.01953125 C-127.99853516 58.106875 -127.28955078 57.19421875 -126.55908203 56.25390625 C-104.71735079 28.8176263 -74.94696852 10.92811115 -40.95751953 2.83203125 C-40.26070068 2.66509766 -39.56388184 2.49816406 -38.84594727 2.32617188 C-25.96858482 -0.64024507 -13.1453157 -0.15380771 0 0 Z " fill="#2BA81B" transform="translate(547.70751953125,251.98046875)"/>
<path d="M0 0 C14.88126344 11.50570714 26.03350614 28.13139999 29.01171875 46.87109375 C30.85473498 70.12502767 27.22616393 90.18005644 12.63671875 108.74609375 C11.12378815 110.47992762 9.58247108 112.18946478 8.01171875 113.87109375 C7.27566406 114.66128906 6.53960938 115.45148438 5.78125 116.265625 C-7.86394923 129.68226143 -27.31274676 136.0329666 -46.05078125 136.12109375 C-47.12005859 136.14171875 -48.18933594 136.16234375 -49.29101562 136.18359375 C-58.18222943 136.22657243 -66.5073568 135.07224962 -74.55078125 131.12109375 C-83.22619783 127.96639681 -93.66974726 131.79444732 -102.30078125 133.93359375 C-104.56617595 134.49321923 -106.83306885 135.04682188 -109.1015625 135.59375 C-110.08938721 135.83875244 -111.07721191 136.08375488 -112.0949707 136.33618164 C-115.121776 136.89577411 -117.91721186 136.96424278 -120.98828125 136.87109375 C-120.65780174 125.66783832 -120.08498103 112.06449332 -114.98828125 101.87109375 C-114.02744498 94.856989 -115.46690857 89.87363576 -118.796875 83.70703125 C-121.75964244 76.65467333 -121.17106481 68.58131687 -121.17578125 61.05859375 C-121.18802734 60.04216797 -121.20027344 59.02574219 -121.21289062 57.97851562 C-121.24468617 41.34944523 -116.45379276 26.93136018 -105.98828125 13.87109375 C-105.34375 13.05125 -104.69921875 12.23140625 -104.03515625 11.38671875 C-95.53092102 1.2446308 -84.41649854 -6.57015988 -71.98828125 -11.12890625 C-70.99183594 -11.51949219 -69.99539063 -11.91007812 -68.96875 -12.3125 C-45.14151918 -20.48102871 -19.94740179 -14.21089408 0 0 Z " fill="#2CA91C" transform="translate(585.98828125,343.12890625)"/>
<path d="M0 0 C14.88126344 11.50570714 26.03350614 28.13139999 29.01171875 46.87109375 C30.85473498 70.12502767 27.22616393 90.18005644 12.63671875 108.74609375 C11.12378815 110.47992762 9.58247108 112.18946478 8.01171875 113.87109375 C7.27566406 114.66128906 6.53960938 115.45148438 5.78125 116.265625 C-7.86394923 129.68226143 -27.31274676 136.0329666 -46.05078125 136.12109375 C-47.12005859 136.14171875 -48.18933594 136.16234375 -49.29101562 136.18359375 C-58.18222943 136.22657243 -66.5073568 135.07224962 -74.55078125 131.12109375 C-83.22619783 127.96639681 -93.66974726 131.79444732 -102.30078125 133.93359375 C-104.56617595 134.49321923 -106.83306885 135.04682188 -109.1015625 135.59375 C-110.08938721 135.83875244 -111.07721191 136.08375488 -112.0949707 136.33618164 C-115.121776 136.89577411 -117.91721186 136.96424278 -120.98828125 136.87109375 C-120.65780174 125.66783832 -120.08498103 112.06449332 -114.98828125 101.87109375 C-114.02744498 94.856989 -115.46690857 89.87363576 -118.796875 83.70703125 C-121.75964244 76.65467333 -121.17106481 68.58131687 -121.17578125 61.05859375 C-121.18802734 60.04216797 -121.20027344 59.02574219 -121.21289062 57.97851562 C-121.24468617 41.34944523 -116.45379276 26.93136018 -105.98828125 13.87109375 C-105.34375 13.05125 -104.69921875 12.23140625 -104.03515625 11.38671875 C-95.53092102 1.2446308 -84.41649854 -6.57015988 -71.98828125 -11.12890625 C-70.99183594 -11.51949219 -69.99539063 -11.91007812 -68.96875 -12.3125 C-45.14151918 -20.48102871 -19.94740179 -14.21089408 0 0 Z M-82.98828125 13.87109375 C-83.69597656 14.41636719 -84.40367187 14.96164062 -85.1328125 15.5234375 C-95.53799279 23.97888994 -102.85623052 36.63397304 -104.98828125 49.87109375 C-106.1364678 62.68509296 -105.24391949 75.42164252 -99.375 87.07421875 C-95.868871 94.14573528 -98.74418813 102.24905284 -100.33203125 109.578125 C-101.08600371 112.8018305 -101.08600371 112.8018305 -100.98828125 115.87109375 C-94.97945741 115.08733412 -89.1822744 113.79920153 -83.29296875 112.39453125 C-76.21416774 111.27330272 -70.71300797 114.64966453 -64.36328125 117.49609375 C-51.46958449 122.74908132 -36.16138542 120.93847633 -23.52539062 115.91723633 C-7.88450283 109.19066465 3.27895116 97.47140889 10.01171875 81.87109375 C15.12059797 67.34442294 14.65073479 50.27928627 8.86328125 36.046875 C2.50021636 23.15523197 -10.2129077 9.74893094 -23.98828125 4.87109375 C-44.96969208 -1.1983418 -65.57860488 -0.19641089 -82.98828125 13.87109375 Z " fill="#F9FCF9" transform="translate(585.98828125,343.12890625)"/>
<path d="M0 0 C4.95 0 9.9 0 15 0 C15.33 2.31 15.66 4.62 16 7 C16.55429687 6.57847656 17.10859375 6.15695312 17.6796875 5.72265625 C18.76636719 4.90087891 18.76636719 4.90087891 19.875 4.0625 C20.59429687 3.51722656 21.31359375 2.97195313 22.0546875 2.41015625 C26.45167262 -0.7772165 30.72112605 -0.44667395 36 0 C42.19485976 2.17967288 44.79211679 5.67051096 47.75 11.375 C50.83040926 20.37796409 49.98001798 31.00373376 46.3359375 39.6875 C43.23204725 45.06031587 38.82563573 48.07553738 33 50 C30.3515625 50.265625 30.3515625 50.265625 27.625 50.25 C26.28308594 50.25773438 26.28308594 50.25773438 24.9140625 50.265625 C21.43929642 49.94889029 18.32341372 49.0390822 15 48 C15.03298902 50.77407649 15.10009079 53.54005929 15.1875 56.3125 C15.19330078 57.09818359 15.19910156 57.88386719 15.20507812 58.69335938 C15.28981219 60.90585999 15.40900753 62.86456239 16 65 C18.43888246 66.89795367 18.43888246 66.89795367 21 68 C21 68.99 21 69.98 21 71 C14.07 71 7.14 71 0 71 C0 70.01 0 69.02 0 68 C2.475 67.505 2.475 67.505 5 67 C5.11580856 59.09849468 5.20467034 51.19734336 5.25906086 43.29519939 C5.28516481 39.62593823 5.32057487 35.95725727 5.37719727 32.28833008 C5.43149248 28.74807341 5.46141453 25.208375 5.47438622 21.66773415 C5.4881329 19.65840346 5.52717084 17.64929769 5.56648254 15.64030457 C5.5668602 14.41926529 5.56723785 13.19822601 5.56762695 11.94018555 C5.57873001 10.86318893 5.58983307 9.78619232 5.60127258 8.67655945 C5.26969166 5.75799542 5.26969166 5.75799542 2.46452332 4.3162384 C1.65123062 3.88187973 0.83793793 3.44752106 0 3 C0 2.01 0 1.02 0 0 Z " fill="#0A0A0A" transform="translate(430,727)"/>
<path d="M0 0 C4.62 0 9.24 0 14 0 C14 2.64 14 5.28 14 8 C14.66644531 7.4225 15.33289063 6.845 16.01953125 6.25 C21.85398714 1.54979497 25.94283514 -1.10311862 33.55859375 -0.453125 C38.79921385 0.51953409 41.66827545 2.28691724 44.8125 6.5 C49.89091089 13.99435393 48.67331107 24.30604987 48 33 C46.91982837 38.11320375 45.28496396 41.60795572 41.75 45.4375 C34.61406401 49.49200908 28.26944555 50.9517897 20 50 C18.35 49.34 16.7 48.68 15 48 C15.33 54.27 15.66 60.54 16 67 C17.65 67.33 19.3 67.66 21 68 C21 68.99 21 69.98 21 71 C14.07 71 7.14 71 0 71 C0 70.01 0 69.02 0 68 C0.81165619 67.5608728 1.62331238 67.12174561 2.45956421 66.66931152 C5.24909583 65.2487416 5.24909583 65.2487416 5.63491821 62.41955566 C5.63889618 61.38713745 5.64287415 60.35471924 5.64697266 59.29101562 C5.66273346 58.11970093 5.67849426 56.94838623 5.69473267 55.74157715 C5.68461151 54.47591919 5.67449036 53.21026123 5.6640625 51.90625 C5.67123795 49.95893982 5.67123795 49.95893982 5.67855835 47.97229004 C5.68592844 45.22487646 5.67522212 42.47827603 5.65185547 39.73095703 C5.62336479 36.20961035 5.63976843 32.69016867 5.66971779 29.16889191 C5.69213328 25.81035857 5.67643822 22.45233748 5.6640625 19.09375 C5.67418365 17.82809204 5.68430481 16.56243408 5.69473267 15.25842285 C5.67897186 14.08710815 5.66321106 12.91579346 5.64697266 11.70898438 C5.64299469 10.67656616 5.63901672 9.64414795 5.63491821 8.58044434 C5.24909583 5.7512584 5.24909583 5.7512584 2.45956421 4.33068848 C1.64790802 3.89156128 0.83625183 3.45243408 0 3 C0 2.01 0 1.02 0 0 Z " fill="#080808" transform="translate(488,727)"/>
<path d="M0 0 C4.95 0 9.9 0 15 0 C15.029729 2.92999878 15.029729 2.92999878 15.06005859 5.91918945 C15.1277999 12.36937358 15.20457287 18.81940057 15.28752708 25.26940632 C15.33749615 29.18046323 15.383826 33.09149306 15.421875 37.00268555 C15.45872031 40.77644285 15.50507793 44.54997383 15.55806351 48.32353783 C15.57661153 49.76400983 15.59171801 51.20453035 15.60334396 52.64507484 C15.62019865 54.66102193 15.65036894 56.67684444 15.68115234 58.69262695 C15.69447601 59.84068314 15.70779968 60.98873932 15.7215271 62.17158508 C15.79612833 65.20390666 15.79612833 65.20390666 18 68 C18.99 68.33 19.98 68.66 21 69 C21 69.99 21 70.98 21 72 C16.38 72 11.76 72 7 72 C6.505 68.535 6.505 68.535 6 65 C5.48050781 65.40992188 4.96101562 65.81984375 4.42578125 66.2421875 C-1.29852883 70.66503706 -5.47524968 73.52930086 -13.01171875 73.31640625 C-17.46846106 72.60718007 -20.25687201 69.78441288 -23.25 66.625 C-27.07516253 60.8872562 -27.36449465 55.30640478 -27.375 48.625 C-27.39949219 47.81289063 -27.42398438 47.00078125 -27.44921875 46.1640625 C-27.48301172 39.13512406 -25.67111871 33.98898697 -20.96484375 28.72265625 C-20.29582031 28.17480469 -19.62679687 27.62695312 -18.9375 27.0625 C-18.26589844 26.49660156 -17.59429688 25.93070313 -16.90234375 25.34765625 C-13.00232796 22.58481139 -9.07558897 22.84885378 -4.5 22.875 C-3.82324219 22.87113281 -3.14648438 22.86726562 -2.44921875 22.86328125 C0.64073767 22.86937584 3.04679311 23.0155977 6 24 C5.67 17.73 5.34 11.46 5 5 C3.35 4.34 1.7 3.68 0 3 C0 2.01 0 1.02 0 0 Z " fill="#080808" transform="translate(797,704)"/>
<path d="M0 0 C6.93 0 13.86 0 21 0 C21 0.99 21 1.98 21 3 C19.02 3.99 19.02 3.99 17 5 C16.67519524 12.30433022 17.82112481 18.51701835 19.6875 25.5625 C19.95643066 26.60792969 20.22536133 27.65335938 20.50244141 28.73046875 C22.72374885 37.24439109 25.22524372 45.65117579 28 54 C28.18062988 53.35264893 28.36125977 52.70529785 28.54736328 52.03833008 C30.37397185 45.49519431 32.20573055 38.95351934 34.04199219 32.41308594 C34.65282431 30.23687974 35.26292744 28.0604687 35.87207031 25.88378906 C36.66112678 23.06733485 37.45485798 20.2522413 38.25 17.4375 C38.48348145 16.60130127 38.71696289 15.76510254 38.95751953 14.90356445 C40.39867011 9.82451305 42.08376075 4.92022609 44 0 C46.97 0 49.94 0 53 0 C53.1451001 0.6305127 53.2902002 1.26102539 53.43969727 1.91064453 C57.59243472 19.94844065 61.78633928 37.9763576 66 56 C66.35191406 54.73929688 66.70382813 53.47859375 67.06640625 52.1796875 C67.56427186 50.41122381 68.06304317 48.64301495 68.5625 46.875 C68.82627441 45.93954346 69.09004883 45.00408691 69.36181641 44.0402832 C70.80276493 38.99024173 72.31092777 33.97551008 73.95703125 28.98828125 C74.27663818 28.01713379 74.59624512 27.04598633 74.92553711 26.04541016 C75.54495246 24.18095242 76.17423218 22.31973444 76.81469727 20.46240234 C78.6037614 15.07046703 79.33000006 10.68260105 79 5 C77.68 4.34 76.36 3.68 75 3 C75 2.01 75 1.02 75 0 C81.27 0 87.54 0 94 0 C92 4 92 4 90.0625 6.671875 C87.54940577 10.72709523 86.3183099 14.69386305 85 19.25 C83.56016856 24.13118681 82.08059623 28.92411591 80.140625 33.6328125 C77.32363921 40.50625784 75.07097601 47.57319068 72.75 54.625 C72.28674117 56.02483322 71.82320143 57.4245735 71.359375 58.82421875 C70.23634841 62.21508246 69.11710867 65.60718137 68 69 C65.36 69 62.72 69 60 69 C56.89886964 58.9669312 54.54286471 48.81545407 52.22558594 38.57910156 C50.41248747 30.62971839 48.40868742 22.79281225 46 15 C41.89752246 28.82065698 37.94349441 42.66630645 34.31030273 56.61865234 C34.03645752 57.65715332 33.7626123 58.6956543 33.48046875 59.765625 C33.24223389 60.68118164 33.00399902 61.59673828 32.75854492 62.54003906 C32 65 32 65 30 69 C27.03 69 24.06 69 21 69 C20.84966309 68.38294189 20.69932617 67.76588379 20.54443359 67.13012695 C17.61691643 55.15784304 14.59364323 43.2360699 11.11303711 31.41137695 C9.93865965 27.39669862 8.82951322 23.393927 7.91015625 19.3125 C7.74338379 18.58160156 7.57661133 17.85070312 7.40478516 17.09765625 C6.97134352 15.15192451 6.56085895 13.20111737 6.15234375 11.25 C4.80587165 7.45249224 2.89137239 5.73469704 0 3 C0 2.01 0 1.02 0 0 Z " fill="#080808" transform="translate(79,707)"/>
<path d="M0 0 C5.05908484 2.20524211 7.1948347 7.19467645 9.25 12.0625 C9.68957031 13.073125 10.12914062 14.08375 10.58203125 15.125 C11.51430473 18.32623133 11.49591698 19.93023046 10.4375 23.0625 C9.73625 23.866875 9.035 24.67125 8.3125 25.5 C6.13083852 27.91841694 6.13083852 27.91841694 6.57421875 30.91796875 C9.26117109 40.70528385 20.91512279 48.4598841 29.078125 53.78515625 C31.35675451 55.26087314 31.35675451 55.26087314 33.9375 55.0625 C36.67310695 54.17537265 36.67310695 54.17537265 38.8125 51.5 C41.4375 49.0625 41.4375 49.0625 44.609375 48.7578125 C48.85381138 49.09563499 52.33204579 50.07222838 56.3125 51.5 C56.98796875 51.73009766 57.6634375 51.96019531 58.359375 52.19726562 C63.2749496 53.8999496 63.2749496 53.8999496 64.4375 55.0625 C64.86747529 58.76028753 64.60791456 60.73530405 62.875 64.0625 C56.16273594 72.32374808 56.16273594 72.32374808 51.29760742 73.64257812 C48.93840835 73.87061435 46.68114834 73.8946732 44.3125 73.8125 C43.4779126 73.79582275 42.6433252 73.77914551 41.78344727 73.76196289 C34.04248643 73.40370231 28.03787614 71.12286932 21.4375 67.0625 C20.61636719 66.59070313 19.79523437 66.11890625 18.94921875 65.6328125 C4.63047086 56.58692595 -9.49511411 41.8065719 -13.5625 25.0625 C-14.51565289 18.64515168 -14.40991319 13.63432699 -10.875 8.0625 C-4.7193828 0.1151069 -4.7193828 0.1151069 0 0 Z " fill="#F9FCF9" transform="translate(515.5625,366.9375)"/>
<path d="M0 0 C4.55318701 -0.07468636 9.10600998 -0.12885256 13.65966797 -0.16479492 C15.20562968 -0.1797933 16.75154948 -0.20019887 18.29736328 -0.22631836 C35.78536589 -0.51420995 35.78536589 -0.51420995 43.875 4.9375 C46.96192333 7.93363147 47.89968709 9.91870504 48.30078125 14.2421875 C48.30658203 16.04042969 48.30658203 16.04042969 48.3125 17.875 C48.32925781 19.06867187 48.34601562 20.26234375 48.36328125 21.4921875 C47.80271891 26.90492927 45.82450401 30.79158493 41.625 34.25 C41.06039062 34.72953125 40.49578125 35.2090625 39.9140625 35.703125 C34.61229691 39.29534169 29.88408483 39.25215959 23.6875 39.125 C22.85154297 39.11597656 22.01558594 39.10695313 21.15429688 39.09765625 C19.10274031 39.07420989 17.05133223 39.03834266 15 39 C15.1097568 42.77143982 15.24041479 46.54187097 15.375 50.3125 C15.4059375 51.38435547 15.436875 52.45621094 15.46875 53.56054688 C15.50742187 54.58857422 15.54609375 55.61660156 15.5859375 56.67578125 C15.6173584 57.62364502 15.6487793 58.57150879 15.68115234 59.5480957 C15.8489051 62.2530269 15.8489051 62.2530269 18 65 C20.05925139 65.72382467 20.05925139 65.72382467 22 66 C22 66.99 22 67.98 22 69 C14.74 69 7.48 69 0 69 C0 68.01 0 67.02 0 66 C0.639375 65.71125 1.27875 65.4225 1.9375 65.125 C4.15206079 64.17176549 4.15206079 64.17176549 5 62 C5.10082105 60.25948793 5.13836694 58.51514458 5.14526367 56.77172852 C5.15164352 55.6804213 5.15802338 54.58911407 5.16459656 53.46473694 C5.16570938 52.28141281 5.1668222 51.09808868 5.16796875 49.87890625 C5.17129715 48.6680687 5.17462555 47.45723114 5.17805481 46.20970154 C5.18312514 43.64493185 5.1854631 41.08015555 5.18530273 38.51538086 C5.18748893 34.58240947 5.20564307 30.64971858 5.22460938 26.71679688 C5.22754327 24.22916763 5.22952809 21.74153705 5.23046875 19.25390625 C5.23765427 18.07260635 5.24483978 16.89130646 5.25224304 15.67420959 C5.24916641 14.57975021 5.24608978 13.48529083 5.24291992 12.35766602 C5.24434494 11.39329117 5.24576996 10.42891632 5.24723816 9.43531799 C5.16560741 6.74160159 5.16560741 6.74160159 3 4 C2.01 3.67 1.02 3.34 0 3 C0 2.01 0 1.02 0 0 Z " fill="#030303" transform="translate(916,707)"/>
<path d="M0 0 C1.28648437 -0.01675781 2.57296875 -0.03351562 3.8984375 -0.05078125 C9.43193131 0.48864739 13.33681856 2.39113683 16.875 6.6875 C17.35453125 7.25210938 17.8340625 7.81671875 18.328125 8.3984375 C23.06543415 15.3902492 22.40210123 24.19762036 21.625 32.3125 C19.74702318 40.94479117 15.76921365 44.5496909 8.625 49.3125 C2.5154748 51.16387127 -4.15160843 51.0050318 -10.1875 49.125 C-16.28482947 45.65789109 -19.78064226 41.26281355 -21.93359375 34.578125 C-23.47153771 26.68425334 -23.53670451 17.38817932 -19.71484375 10.1796875 C-14.56614596 3.00453431 -8.73214332 0.02614414 0 0 Z " fill="#090909" transform="translate(679.375,726.6875)"/>
<path d="M0 0 C2.97 0 5.94 0 9 0 C9.37511719 1.258125 9.75023437 2.51625 10.13671875 3.8125 C12.73982079 12.52604157 15.35838207 21.23210523 18.10205078 29.90258789 C19.27665277 33.63089628 20.40807012 37.36881167 21.50390625 41.12109375 C21.89255859 42.44463867 21.89255859 42.44463867 22.2890625 43.79492188 C22.78784915 45.49910961 23.28171409 47.20474931 23.76953125 48.91210938 C26.12355882 58.8278069 26.12355882 58.8278069 32.12915039 66.25170898 C33.05522095 66.62211304 33.05522095 66.62211304 34 67 C34 67.99 34 68.98 34 70 C26.08 70 18.16 70 10 70 C10 69.01 10 68.02 10 67 C12.475 66.01 12.475 66.01 15 65 C15.05506505 63.47959282 15.09326375 61.95857296 15.125 60.4375 C15.14820313 59.59058594 15.17140625 58.74367188 15.1953125 57.87109375 C15.04941157 54.25061378 15.04941157 54.25061378 13 48 C5.08 47.67 -2.84 47.34 -11 47 C-12.80223212 53.8763111 -12.80223212 53.8763111 -13.125 60.5 C-13.10695313 61.3559375 -13.08890625 62.211875 -13.0703125 63.09375 C-13.04710937 63.7228125 -13.02390625 64.351875 -13 65 C-11.35 65.66 -9.7 66.32 -8 67 C-8 67.99 -8 68.98 -8 70 C-15.26 70 -22.52 70 -30 70 C-30 69.01 -30 68.02 -30 67 C-29.3918042 66.76286285 -28.7836084 66.52572571 -28.15698242 66.28140259 C-21.92869331 62.58135121 -19.56232406 51.59269931 -17.1875 45.0390625 C-16.85129639 44.12724213 -16.51509277 43.21542175 -16.16870117 42.27597046 C-15.10702089 39.39428005 -14.05300657 36.5098699 -13 33.625 C-11.60755209 29.82427052 -10.21160119 26.02484774 -8.8125 22.2265625 C-8.48080811 21.32536682 -8.14911621 20.42417114 -7.80737305 19.4956665 C-5.37405325 12.92098261 -2.80088447 6.42823185 0 0 Z " fill="#080808" transform="translate(875,706)"/>
<path d="M0 0 C2.05078125 0.03255208 4.1015625 0.06510417 6.15234375 0.09765625 C8.2368292 4.75499231 9.88982364 9.29952936 11.27734375 14.22265625 C13.66436911 22.54939958 16.20761266 30.82586993 18.77734375 39.09765625 C19.16164551 40.33789551 19.54594727 41.57813477 19.94189453 42.85595703 C21.74954265 48.66978666 23.57608911 54.47146272 25.55224609 60.23046875 C26.17546182 62.1695875 26.67972437 64.11694639 27.15234375 66.09765625 C28.47234375 66.42765625 29.79234375 66.75765625 31.15234375 67.09765625 C31.15234375 68.08765625 31.15234375 69.07765625 31.15234375 70.09765625 C23.56234375 70.09765625 15.97234375 70.09765625 8.15234375 70.09765625 C8.15234375 69.10765625 8.15234375 68.11765625 8.15234375 67.09765625 C10.62734375 66.10765625 10.62734375 66.10765625 13.15234375 65.09765625 C13.19359375 63.79828125 13.23484375 62.49890625 13.27734375 61.16015625 C13.30054688 60.42925781 13.32375 59.69835937 13.34765625 58.9453125 C13.07282569 54.938283 12.02363265 51.01845629 11.15234375 47.09765625 C3.23234375 47.42765625 -4.68765625 47.75765625 -12.84765625 48.09765625 C-15.89038148 56.14356181 -15.89038148 56.14356181 -15.84765625 64.09765625 C-13.42093058 65.88734651 -13.42093058 65.88734651 -10.84765625 67.09765625 C-10.84765625 68.08765625 -10.84765625 69.07765625 -10.84765625 70.09765625 C-17.77765625 70.09765625 -24.70765625 70.09765625 -31.84765625 70.09765625 C-31.84765625 69.10765625 -31.84765625 68.11765625 -31.84765625 67.09765625 C-31.23470703 66.85805176 -30.62175781 66.61844727 -29.99023438 66.37158203 C-22.03962922 61.64434209 -18.51056903 42.76173979 -15.34765625 34.22265625 C-14.04680164 30.72480274 -12.74413076 27.22762623 -11.44140625 23.73046875 C-11.13050049 22.89557922 -10.81959473 22.0606897 -10.49926758 21.20050049 C-8.65918951 16.26297399 -6.81321344 11.32793983 -4.94140625 6.40234375 C-4.55662109 5.38897949 -4.17183594 4.37561523 -3.77539062 3.33154297 C-2.4454781 0.1292536 -2.4454781 0.1292536 0 0 Z " fill="#070707" transform="translate(393.84765625,705.90234375)"/>
<path d="M0 0 C4.95 0 9.9 0 15 0 C15.33 9.9 15.66 19.8 16 30 C18.64 28.02 21.28 26.04 24 24 C27.71013678 22.14493161 31.95092823 22.54665301 36 23 C40.09424336 25.04712168 42.41711696 26.71540717 44 31 C44.21212726 33.60631524 44.32447069 36.11540594 44.34375 38.72265625 C44.3583728 39.46454697 44.37299561 40.20643768 44.38806152 40.97080994 C44.45017687 44.13604898 44.48995505 47.30147881 44.53173828 50.46704102 C44.56547227 52.78162003 44.61057446 55.09578711 44.65625 57.41015625 C44.6615271 58.12583267 44.6668042 58.84150909 44.67224121 59.57887268 C44.74616238 63.25758867 44.90414661 64.85621991 47 68 C47.99 68.33 48.98 68.66 50 69 C50 69.99 50 70.98 50 72 C43.4 72 36.8 72 30 72 C30 71.01 30 70.02 30 69 C30.639375 68.71125 31.27875 68.4225 31.9375 68.125 C34.15206079 67.17176549 34.15206079 67.17176549 35 65 C35.23432625 60.91384719 35.22839964 56.82599614 35.24023438 52.73364258 C35.24991423 50.70547061 35.28092532 48.67832358 35.3125 46.65039062 C35.31765625 45.36712891 35.3228125 44.08386719 35.328125 42.76171875 C35.3374707 41.58569092 35.34681641 40.40966309 35.35644531 39.19799805 C34.93241472 35.39363043 33.72595178 32.72595178 31 30 C25.87804863 29.3933482 25.87804863 29.3933482 21.171875 31.046875 C19.01112375 32.83001923 17.26126906 34.47746188 16 37 C15.91413191 39.32416296 15.89288957 41.65083307 15.90234375 43.9765625 C15.90446617 45.00443375 15.90446617 45.00443375 15.90663147 46.05307007 C15.91223325 48.24375761 15.92478594 50.4343433 15.9375 52.625 C15.94251478 54.10937352 15.94707772 55.59374865 15.95117188 57.078125 C15.96220323 60.71878315 15.97946901 64.35938164 16 68 C17.65 68.33 19.3 68.66 21 69 C21 69.99 21 70.98 21 72 C14.4 72 7.8 72 1 72 C1 71.01 1 70.02 1 69 C2.98 68.505 2.98 68.505 5 68 C5 47.21 5 26.42 5 5 C2.525 4.01 2.525 4.01 0 3 C0 2.01 0 1.02 0 0 Z " fill="#060606" transform="translate(177,704)"/>
<path d="M0 0 C3.4709539 2.30745104 4.23621947 3.98150695 5.7734375 7.84375 C6.20732105 10.66640749 6.26106142 13.45215639 6.28515625 16.3046875 C6.30310745 17.09525543 6.32105865 17.88582336 6.33955383 18.7003479 C6.39340456 21.20642891 6.42747031 23.71232227 6.4609375 26.21875 C6.49413298 27.92580722 6.52862469 29.63283976 6.56445312 31.33984375 C6.64911602 35.50767653 6.71604657 39.6754561 6.7734375 43.84375 C8.4234375 44.17375 10.0734375 44.50375 11.7734375 44.84375 C11.7734375 45.83375 11.7734375 46.82375 11.7734375 47.84375 C7.1534375 47.84375 2.5334375 47.84375 -2.2265625 47.84375 C-2.2265625 45.53375 -2.2265625 43.22375 -2.2265625 40.84375 C-2.74605469 41.25367188 -3.26554687 41.66359375 -3.80078125 42.0859375 C-9.84570298 46.75650549 -14.22682624 49.33655679 -22.0078125 49.16796875 C-25.47224725 48.66172212 -27.60535185 47.08136884 -30.2265625 44.84375 C-33.0641198 40.58741405 -32.98138217 36.8395668 -32.2265625 31.84375 C-29.95862293 27.15213252 -26.00067311 24.61193911 -21.2265625 22.84375 C-15.21084386 21.39670119 -9.40928601 20.56896229 -3.2265625 20.84375 C-3.27574145 12.82402843 -3.27574145 12.82402843 -6.2890625 5.59375 C-10.41413891 3.13625767 -12.46345865 3.16330659 -17.2265625 3.84375 C-19.97182963 5.93882228 -21.30536254 7.96195007 -23.2265625 10.84375 C-26.3515625 11.03125 -26.3515625 11.03125 -29.2265625 10.84375 C-29.2265625 8.53375 -29.2265625 6.22375 -29.2265625 3.84375 C-19.89281244 -0.94278849 -10.2459625 -3.67167663 0 0 Z " fill="#0A0A0A" transform="translate(267.2265625,728.15625)"/>
<path d="M0 0 C0.77279297 -0.00773438 1.54558594 -0.01546875 2.34179688 -0.0234375 C7.28540235 -0.00672201 11.37430873 0.67686525 16.0625 2.25 C16.0625 6.87 16.0625 11.49 16.0625 16.25 C14.0825 16.25 12.1025 16.25 10.0625 16.25 C9.71638672 15.43595703 9.71638672 15.43595703 9.36328125 14.60546875 C7.81905062 11.21792726 6.59459813 8.71019298 3.75 6.25 C-0.28017549 4.75039982 -3.6972827 4.4187244 -7.80078125 5.94140625 C-13.61160685 8.9152549 -16.39895172 13.35696563 -18.6875 19.375 C-22.17085605 32.09598536 -20.86002228 46.15927922 -15.9375 58.25 C-15.60492187 59.16265625 -15.27234375 60.0753125 -14.9296875 61.015625 C-14.11634686 63.39083446 -14.11634686 63.39083446 -11.9375 64.5625 C-6.57691814 65.79096668 -1.29865965 66.07127292 3.9375 64.25 C6.97162925 61.39434894 8.44728778 58.04890695 10.0625 54.25 C12.0425 54.25 14.0225 54.25 16.0625 54.25 C16.0625 58.87 16.0625 63.49 16.0625 68.25 C5.80307447 71.66980851 -6.66129093 73.66593293 -17.05078125 69.33203125 C-24.02723944 65.3310397 -27.44128898 59.60713256 -30.05859375 52.109375 C-32.75264952 40.27947679 -32.54703522 24.68684627 -26.6484375 13.890625 C-19.64362639 3.92656214 -12.10069111 -0.12050481 0 0 Z " fill="#0A0A0A" transform="translate(601.9375,705.75)"/>
<path d="M0 0 C4.95 0 9.9 0 15 0 C15.04898438 2.37316406 15.09796875 4.74632812 15.1484375 7.19140625 C15.2025597 9.50827953 15.25982281 11.82505558 15.31738281 14.1418457 C15.35549419 15.74300796 15.39037713 17.34425063 15.421875 18.94555664 C15.46791611 21.25696414 15.52584208 23.56782644 15.5859375 25.87890625 C15.59748871 26.58648575 15.60903992 27.29406525 15.62094116 28.02308655 C15.75550264 32.62937894 16.38851425 36.67527081 18 41 C21.47959702 43.31973135 23.04272483 43.05594535 27.06640625 42.40625 C29.40834165 41.91420701 31.08760155 41.47107573 33 40 C34.97030025 36.06869129 35.2462845 32.82248864 35.23046875 28.45703125 C35.22853516 27.21888672 35.22660156 25.98074219 35.22460938 24.70507812 C35.21236328 23.42052734 35.20011719 22.13597656 35.1875 20.8125 C35.18685547 19.51634766 35.18621094 18.22019531 35.18554688 16.88476562 C35.49118085 10.76001298 35.49118085 10.76001298 34 5 C31.98330173 3.86649466 31.98330173 3.86649466 30 3 C30 2.34 30 1.68 30 1 C34.62 1 39.24 1 44 1 C44.029729 2.8394519 44.029729 2.8394519 44.06005859 4.71606445 C44.13607619 9.26168508 44.22479947 13.80698399 44.31738281 18.35229492 C44.35568847 20.32032931 44.39053855 22.2884341 44.421875 24.2565918 C44.46749111 27.08407772 44.52549098 29.91107834 44.5859375 32.73828125 C44.59748871 33.61962234 44.60903992 34.50096344 44.62094116 35.40901184 C44.64081085 36.22963608 44.66068054 37.05026031 44.68115234 37.89575195 C44.69447601 38.61745071 44.70779968 39.33914948 44.7215271 40.0827179 C44.90726155 42.32601629 44.90726155 42.32601629 47 45 C49.05925139 45.72382467 49.05925139 45.72382467 51 46 C51 46.99 51 47.98 51 49 C46.05 49 41.1 49 36 49 C35.505 45.535 35.505 45.535 35 42 C34.54109375 42.40992188 34.0821875 42.81984375 33.609375 43.2421875 C32.99578125 43.78101563 32.3821875 44.31984375 31.75 44.875 C31.14671875 45.40867187 30.5434375 45.94234375 29.921875 46.4921875 C25.75514864 49.76120453 22.46906726 50.45452162 17.25 50.30859375 C13.61659447 49.81026209 11.66202153 48.47187713 9 46 C6.38746624 40.96747583 5.58595609 36.88585303 5.6640625 31.203125 C5.65156554 29.73567253 5.63852916 28.26822457 5.625 26.80078125 C5.62105302 24.5140003 5.62514173 22.22765829 5.63964844 19.94091797 C5.64819627 17.71515695 5.62660215 15.4912245 5.6015625 13.265625 C5.61490631 12.58123352 5.62825012 11.89684204 5.64199829 11.19171143 C5.66263944 9.02289632 5.66263944 9.02289632 5 6 C2.54645319 4.2019358 2.54645319 4.2019358 0 3 C0 2.01 0 1.02 0 0 Z " fill="#080808" transform="translate(710,727)"/>
<path d="M0 0 C4.93107282 2.83080106 7.00925087 5.82702409 8.52734375 11.28125 C10.12074925 20.44662379 10.1027271 29.93643126 5 38 C1.89201191 40.83772826 0.07889725 41.84587182 -4.0625 42.4375 C-7.59244934 41.91176286 -9.25685428 41.31001745 -12 39 C-15.98474931 33.18998418 -16.59866339 27.83633294 -16.4375 20.9375 C-16.44458984 20.07833984 -16.45167969 19.21917969 -16.45898438 18.33398438 C-16.39331813 11.72189874 -15.08116725 7.12175088 -11.375 1.5625 C-7.67903517 -0.86905581 -4.28328818 -0.83286159 0 0 Z " fill="#FAFAFA" transform="translate(683,731)"/>
<path d="M0 0 C4.2737279 3.09163295 5.66816216 5.9997667 7 11 C7.29474078 13.79740893 7.33426172 16.56369675 7.3125 19.375 C7.30686035 20.12869873 7.3012207 20.88239746 7.29541016 21.65893555 C7.17695633 27.06617692 6.79300888 31.2518849 4 36 C0.84125166 38.93837055 -1.7478307 40.24541663 -6 40.5625 C-10.67772485 40.32906268 -12.82953966 38.32511694 -16 35 C-17.60456944 30.18629169 -17.35087155 25.29237319 -17.4375 20.25 C-17.48326172 19.1775 -17.52902344 18.105 -17.57617188 17 C-17.65167781 11.66862471 -17.61990425 7.99058833 -14.09765625 3.796875 C-9.88291644 -0.40055713 -5.80545467 -0.88387545 0 0 Z " fill="#FBFBFB" transform="translate(462,733)"/>
<path d="M0 0 C3.3518648 0.08636045 5.48879923 0.47430856 8.1875 2.5 C13.98067492 9.14095662 13.22910473 17.01748929 12.75 25.4375 C12.22831955 30.44857132 11.51885015 33.51487982 8.25 37.4375 C4.18545819 40.68913345 0.85558205 40.97647699 -4.25 40.4375 C-7.45646615 39.11309007 -8.82273999 38.30461691 -10.35961914 35.18554688 C-11.97045104 30.21391981 -11.66083847 25.12168688 -11.6875 19.9375 C-11.72037109 18.80957031 -11.75324219 17.68164062 -11.78710938 16.51953125 C-11.84116782 8.21418877 -11.84116782 8.21418877 -8.84765625 4.28125 C-7.56181641 3.36859375 -7.56181641 3.36859375 -6.25 2.4375 C-3.89048821 0.07798821 -3.23074365 0.09340585 0 0 Z " fill="#FBFBFB" transform="translate(514.25,732.5625)"/>
<path d="M0 0 C2.93423195 1.79646854 4.47205355 2.9441071 6 6 C6.32496013 10.24340343 6.3245719 14.49570189 6.375 18.75 C6.41238281 19.93078125 6.44976563 21.1115625 6.48828125 22.328125 C6.58724686 32.092732 6.58724686 32.092732 3.59375 35.7421875 C-0.00980882 38.87902033 -1.66150725 39.85398261 -6.4375 40.375 C-10.76859471 39.91909529 -12.13192453 39.26641929 -15 36 C-19.04972929 28.74626801 -18.80787522 20.04324124 -18 12 C-17.09819217 8.91997943 -15.8934256 6.57532363 -14 4 C-13.46375 3.175 -12.9275 2.35 -12.375 1.5 C-8.47906034 -0.96059347 -4.46430133 -0.73682643 0 0 Z " fill="#FAFAFA" transform="translate(797,731)"/>
<path d="M0 0 C1.18432617 0.00773438 1.18432617 0.00773438 2.39257812 0.015625 C6.47485399 0.07037472 9.87001008 0.43650202 13.9375 1.25 C13.9375 4.88 13.9375 8.51 13.9375 12.25 C12.2875 12.25 10.6375 12.25 8.9375 12.25 C6.75 9.3125 6.75 9.3125 4.9375 6.25 C2.48367866 5.02308933 0.73765897 5.04824069 -2 5 C-2.87527344 4.97421875 -3.75054687 4.9484375 -4.65234375 4.921875 C-7.10172293 5.06255497 -7.10172293 5.06255497 -8.8671875 6.5546875 C-10.36795733 8.36523955 -10.36795733 8.36523955 -10.25 11.625 C-8.79458582 16.0678433 -7.4042943 16.89254793 -3.453125 19.07421875 C-1.8048422 19.88489379 -0.14793335 20.67818348 1.515625 21.45703125 C6.99425858 24.04051864 10.85600632 25.90874429 13.9375 31.25 C14.72290821 35.60054548 14.45041857 39.07028728 12.6875 43.125 C9.62168592 46.84777424 6.49754625 48.74468086 1.9375 50.25 C-1.5859375 50.515625 -1.5859375 50.515625 -5.4375 50.5 C-6.70335937 50.50515625 -7.96921875 50.5103125 -9.2734375 50.515625 C-13.22425403 50.23866054 -16.31792798 49.46916298 -20.0625 48.25 C-20.0625 44.62 -20.0625 40.99 -20.0625 37.25 C-18.4125 37.25 -16.7625 37.25 -15.0625 37.25 C-14.65 38.19875 -14.2375 39.1475 -13.8125 40.125 C-12.34800642 43.18946871 -12.34800642 43.18946871 -10.375 44.625 C-5.35779172 45.98100224 -1.58201294 46.07306951 2.9375 43.625 C5.16981298 41.36950542 5.16981298 41.36950542 5.5 38.25 C4.79332636 34.48107394 3.86686769 33.6965559 0.9375 31.25 C-2.34913542 29.40897454 -5.78809929 27.88851989 -9.21875 26.33789062 C-13.55598341 24.28660579 -16.5182741 22.50119378 -19.0625 18.25 C-20.05574276 13.57591643 -19.75040602 9.49352242 -17.4375 5.3125 C-11.85988917 0.46878533 -7.08556948 -0.18600346 0 0 Z " fill="#0B0B0B" transform="translate(342.0625,726.75)"/>
<path d="M0 0 C2.64 0 5.28 0 8 0 C8 3.96 8 7.92 8 12 C13.28 12 18.56 12 24 12 C24 13.98 24 15.96 24 18 C18.72 18 13.44 18 8 18 C8.05108114 22.62795102 8.11403825 27.25255308 8.20751953 31.87939453 C8.23570954 33.45252644 8.25693398 35.02579947 8.27099609 36.59912109 C8.29245442 38.86368956 8.33911348 41.12656504 8.390625 43.390625 C8.39185364 44.09181458 8.39308228 44.79300415 8.39434814 45.51544189 C8.49477812 48.87887166 8.81223561 50.74329796 10.81933594 53.48730469 C13.03829556 55.35662444 13.03829556 55.35662444 16.5 54.8125 C17.655 54.544375 18.81 54.27625 20 54 C20.804375 53.814375 21.60875 53.62875 22.4375 53.4375 C22.953125 53.293125 23.46875 53.14875 24 53 C24 54.32 24 55.64 24 57 C18.68791016 61.13162543 14.70516133 62.46242492 8 62 C4.31226627 60.32375739 2.14216504 58.42746406 0 55 C-1.21077701 51.36766898 -1.12444164 48.04878013 -1.09765625 44.26953125 C-1.0962413 43.51911057 -1.09482635 42.76868988 -1.09336853 41.99552917 C-1.0877756 39.6011454 -1.07522444 37.20685547 -1.0625 34.8125 C-1.05748408 33.18815239 -1.05292134 31.56380332 -1.04882812 29.93945312 C-1.03780848 25.95959931 -1.02054873 21.97981556 -1 18 C-3.64 18 -6.28 18 -9 18 C-9 17.01 -9 16.02 -9 15 C-8.071875 14.7525 -7.14375 14.505 -6.1875 14.25 C-1.2220785 10.74499659 -1.01862781 5.76328893 0 0 Z " fill="#0E0E0E" transform="translate(292,715)"/>
<path d="M0 0 C0.01030746 0.83493988 0.02061493 1.66987976 0.03123474 2.53012085 C0.12909975 10.38798973 0.23159839 18.24578142 0.33933926 26.10352135 C0.3945691 30.14353051 0.44798919 34.18354691 0.49731445 38.22363281 C0.54495713 42.12050405 0.59729989 46.01728609 0.65294075 49.91405106 C0.67336475 51.40281588 0.69207776 52.89160516 0.70907402 54.38041306 C0.73311711 56.46121843 0.76317159 58.54185475 0.79467773 60.62255859 C0.81799416 62.40126846 0.81799416 62.40126846 0.84178162 64.21591187 C0.81329649 66.95638065 0.81329649 66.95638065 2 69 C3.485 69.495 3.485 69.495 5 70 C5 70.99 5 71.98 5 73 C-1.6 73 -8.2 73 -15 73 C-15 72.01 -15 71.02 -15 70 C-14.18736191 69.56309341 -13.37472382 69.12618683 -12.53746033 68.67604065 C-9.74061075 67.24582588 -9.74061075 67.24582588 -9.38526917 64.37486267 C-9.39033981 63.32166336 -9.39541046 62.26846405 -9.40063477 61.18334961 C-9.39455704 59.98878647 -9.38847931 58.79422333 -9.38221741 57.5634613 C-9.40174973 56.27279251 -9.42128204 54.98212372 -9.44140625 53.65234375 C-9.44565664 52.31621257 -9.44798496 50.98007401 -9.44847107 49.64393616 C-9.45463588 46.84520959 -9.47733201 44.04728362 -9.51293945 41.2487793 C-9.55825663 37.65833527 -9.57296747 34.06861555 -9.57667637 30.47791195 C-9.58110098 27.71982149 -9.59639689 24.96188363 -9.6155529 22.20385933 C-9.6287701 20.23512324 -9.6369895 18.26635567 -9.64515686 16.29759216 C-9.66114426 15.10618118 -9.67713165 13.9147702 -9.69360352 12.68725586 C-9.70956322 11.10865028 -9.70956322 11.10865028 -9.72584534 9.49815369 C-9.75524677 6.82758657 -9.75524677 6.82758657 -12 5 C-14.06874034 4.3574765 -14.06874034 4.3574765 -16 4 C-16 3.01 -16 2.02 -16 1 C-14.64648453 0.82812502 -13.29213367 0.66282742 -11.9375 0.5 C-10.80634766 0.36078125 -10.80634766 0.36078125 -9.65234375 0.21875 C-6.42842482 -0.04714022 -3.23365437 -0.01325947 0 0 Z " fill="#090909" transform="translate(642,703)"/>
<path d="M0 0 C6.93 0 13.86 0 21 0 C21 0.99 21 1.98 21 3 C20.360625 3.28875 19.72125 3.5775 19.0625 3.875 C16.84793921 4.82823451 16.84793921 4.82823451 16 7 C15.89917895 8.74051207 15.86163306 10.48485542 15.85473633 12.22827148 C15.84835648 13.3195787 15.84197662 14.41088593 15.83540344 15.53526306 C15.83429062 16.71858719 15.8331778 17.90191132 15.83203125 19.12109375 C15.82870285 20.3319313 15.82537445 21.54276886 15.82194519 22.79029846 C15.81687486 25.35506815 15.8145369 27.91984445 15.81469727 30.48461914 C15.81251107 34.41759053 15.79435693 38.35028142 15.77539062 42.28320312 C15.77245673 44.77083237 15.77047191 47.25846295 15.76953125 49.74609375 C15.76234573 50.92739365 15.75516022 52.10869354 15.74775696 53.32579041 C15.75083359 54.42024979 15.75391022 55.51470917 15.75708008 56.64233398 C15.75494255 58.08889626 15.75494255 58.08889626 15.75276184 59.56468201 C15.83439259 62.25839841 15.83439259 62.25839841 18 65 C19.485 65.495 19.485 65.495 21 66 C21 66.99 21 67.98 21 69 C14.07 69 7.14 69 0 69 C0 68.01 0 67.02 0 66 C0.639375 65.71125 1.27875 65.4225 1.9375 65.125 C4.15206079 64.17176549 4.15206079 64.17176549 5 62 C5.09101612 60.1514292 5.11753146 58.29953621 5.11352539 56.44873047 C5.11344986 55.28767792 5.11337433 54.12662537 5.11329651 52.9303894 C5.10813522 51.67203278 5.10297394 50.41367615 5.09765625 49.1171875 C5.0962413 47.83264679 5.09482635 46.54810608 5.09336853 45.22463989 C5.08954911 41.80843158 5.07972373 38.39226574 5.06866455 34.97607422 C5.05843807 31.49056574 5.05386826 28.0050504 5.04882812 24.51953125 C5.03810096 17.67967005 5.02103142 10.83983706 5 4 C2.525 3.01 2.525 3.01 0 2 C0 1.34 0 0.68 0 0 Z " fill="#010101" transform="translate(975,707)"/>
<path d="M0 0 C14.2 0 14.2 0 19 3 C22.74495621 6.74495621 23.28533418 9.88342421 23.4375 15 C23.24558464 19.69901848 23.02229162 23.22213547 20 27 C13.68082525 32.03633476 8.35913016 31 0 31 C0 20.77 0 10.54 0 0 Z " fill="#FAFAFA" transform="translate(931,711)"/>
<path d="M0 0 C0.33 0 0.66 0 1 0 C1.31453125 1.07636719 1.6290625 2.15273438 1.953125 3.26171875 C2.38527239 4.73702144 2.81757515 6.21227862 3.25 7.6875 C3.58680786 8.83822998 3.58680786 8.83822998 3.93041992 10.01220703 C5.6463286 15.85321111 7.4439816 21.66302556 9.30078125 27.4609375 C10 30 10 30 10 33 C3.07 33 -3.86 33 -11 33 C-8.74782139 22.86519627 -8.74782139 22.86519627 -7.08984375 18.125 C-6.56487305 16.61873047 -6.56487305 16.61873047 -6.02929688 15.08203125 C-5.66900391 14.06496094 -5.30871094 13.04789063 -4.9375 12 C-4.57333984 10.95199219 -4.20917969 9.90398438 -3.83398438 8.82421875 C-1.1369646 1.1369646 -1.1369646 1.1369646 0 0 Z " fill="#EEEEEE" transform="translate(877,716)"/>
<path d="M0 0 C0.66 0 1.32 0 2 0 C2.31453125 1.07636719 2.6290625 2.15273438 2.953125 3.26171875 C3.38522665 4.73703483 3.8175329 6.212291 4.25 7.6875 C4.58680786 8.83714233 4.58680786 8.83714233 4.93041992 10.01000977 C6.65628912 15.88064932 8.45356292 21.72488843 10.30078125 27.55859375 C11 30 11 30 11 32 C4.07 32 -2.86 32 -10 32 C-9.28120472 26.96843301 -8.6268241 23.45038101 -6.93359375 18.84765625 C-6.53076172 17.74228516 -6.12792969 16.63691406 -5.71289062 15.49804688 C-5.29201172 14.36431641 -4.87113281 13.23058594 -4.4375 12.0625 C-4.01275391 10.90169922 -3.58800781 9.74089844 -3.15039062 8.54492188 C-2.10634152 5.6943159 -1.05605929 2.84617366 0 0 Z " fill="#EFEFEF" transform="translate(393,717)"/>
<path d="M0 0 C0.3585035 5.03896583 0.54114683 8.87762138 -1.6875 13.5 C-4.22901629 16.24758518 -5.34542137 17.26908427 -9 18 C-17.15575221 17.84424779 -17.15575221 17.84424779 -20 15 C-20.56050987 11.94374616 -20.53437741 9.05903801 -20 6 C-17.8125 3.5625 -17.8125 3.5625 -15 2 C-14.278125 1.5875 -13.55625 1.175 -12.8125 0.75 C-8.56301236 -0.3831967 -4.37161944 -0.15279447 0 0 Z " fill="#F8F8F8" transform="translate(264,753)"/>
</svg>
